<?xml version="1.0" standalone="no"?><!DOCTYPE svg PUBLIC "-//W3C//DTD SVG 1.1//EN" "http://www.w3.org/Graphics/SVG/1.1/DTD/svg11.dtd"><svg t="1655272940583" class="icon" viewBox="0 0 1024 1024" version="1.1" xmlns="http://www.w3.org/2000/svg" p-id="4671" xmlns:xlink="http://www.w3.org/1999/xlink" width="32" height="32"><defs><style type="text/css">@font-face { font-family: feedback-iconfont; src: url("//at.alicdn.com/t/font_1031158_u69w8yhxdu.woff2?t=1630033759944") format("woff2"), url("//at.alicdn.com/t/font_1031158_u69w8yhxdu.woff?t=1630033759944") format("woff"), url("//at.alicdn.com/t/font_1031158_u69w8yhxdu.ttf?t=1630033759944") format("truetype"); }
</style></defs><path d="M769.417846 292.332308a341.218462 341.218462 0 0 0-116.283077-81.732923 17.545846 17.545846 0 0 0-23.492923 21.897846 309.110154 309.110154 0 0 1-81.152 327.089231 309.090462 309.090462 0 0 1-331.963077 58.16123 17.585231 17.585231 0 0 0-23.483077 21.897846 341.336615 341.336615 0 0 0 73.442462 121.698462c62.621538 67.160615 147.672615 105.924923 239.458461 109.134769 4.115692 0.147692 8.211692 0.206769 12.307693 0.206769 87.276308 0 170.043077-32.541538 234.190769-92.366769 67.190154-62.641231 105.934769-147.692308 109.144615-239.478154 3.190154-91.785846-29.538462-179.328-92.169846-246.508307z m57.088 245.277538c-2.884923 82.412308-37.691077 158.779077-97.998769 215.020308-60.307692 56.231385-138.939077 85.789538-221.341539 82.747077-82.422154-2.865231-158.769231-37.661538-215.000615-97.988923a307.337846 307.337846 0 0 1-51.022769-73.580308c115.544615 33.831385 241.851077 4.864 331.273846-78.532923 89.442462-83.396923 127.163077-207.409231 101.464615-325.021539a307.042462 307.042462 0 0 1 69.848616 56.034462c56.251077 60.307692 85.632 138.919385 82.776615 221.321846z m3.554462 273.506462a17.545846 17.545846 0 1 0-24.812308 24.812307l37.228308 37.238154a17.506462 17.506462 0 0 0 24.822154 0 17.545846 17.545846 0 0 0 0-24.822154l-37.238154-37.228307z m12.416-657.23077l-37.228308 37.248a17.545846 17.545846 0 1 0 24.812308 24.822154l37.238154-37.248a17.545846 17.545846 0 1 0-24.822154-24.812307zM513.526154 934.370462c-9.698462 0-17.555692 7.867077-17.555692 17.555692v52.667077a17.555692 17.555692 0 1 0 35.111384 0v-52.667077c0-9.688615-7.847385-17.555692-17.555692-17.555692z m482.756923-438.390154h-52.657231a17.555692 17.555692 0 1 0 0 35.111384h52.667077a17.555692 17.555692 0 1 0 0-35.111384zM197.011692 215.955692a17.506462 17.506462 0 0 0 24.812308 0 17.545846 17.545846 0 0 0 0-24.822154l-37.228308-37.238153a17.545846 17.545846 0 1 0-24.822154 24.812307l37.238154 37.248z m0 595.160616l-37.238154 37.228307a17.545846 17.545846 0 1 0 24.822154 24.822154l37.238154-37.238154a17.545846 17.545846 0 1 0-24.822154-24.812307zM513.526154 92.691692c9.708308 0 17.555692-7.857231 17.555692-17.555692V22.478769a17.555692 17.555692 0 1 0-35.111384 0v52.657231c0 9.698462 7.857231 17.555692 17.555692 17.555692zM83.446154 495.970462h-52.676923a17.555692 17.555692 0 1 0 0 35.111384h52.667077a17.555692 17.555692 0 1 0 0-35.111384z" fill="#205081" p-id="4672"></path></svg>